<svg width="24" height="24" viewBox="0 0 24 24" fill="none" xmlns="http://www.w3.org/2000/svg">
<mask id="mask0_7_27" style="mask-type:alpha" maskUnits="userSpaceOnUse" x="4" y="2" width="16" height="20">
<rect x="4" y="2" width="16" height="20" rx="2" fill="#FF0000"/>
</mask>
<g mask="url(#mask0_7_27)">
<rect x="4" y="13" width="16" height="9" fill="#5FBE00"/>
</g>
<path d="M20 20L20 4C20 2.9 19.1 2 18 2L6 2C4.9 2 4 2.9 4 4L4 20C4 21.1 4.9 22 6 22L18 22C19.1 22 20 21.1 20 20ZM6 8L6 4L18 4L18 8L6 8ZM6 14L6 10L18 10L18 14L6 14ZM6 20L6 16L18 16L18 20L6 20Z" fill="#333333"/>
</svg>
